<svg version="1" xmlns="http://www.w3.org/2000/svg" width="933.333" height="933.333" viewBox="0 0 700.000000 700.000000"><path d="M402.5 122.1c-4.2 1.2-11.2 7.3-13.4 11.8-2.3 4.5-5.4 17.8-8 34.1-4.7 29.4-4.7 57.4 0 80.8 3.4 16.9 5.4 23.2 11.4 36 9.1 19.2 20.5 32.8 39.3 46.9 6.4 4.8 14 11.1 16.9 13.9 12.2 12.5 21.1 30.5 24.8 50.4.8 4.7 1.4 28.3.8 34.3-.5 4.7-.6 4.8-7.7 8.9-12.5 7.3-35.1 22.8-41.7 28.8-.9.8-4.4 3.7-7.7 6.5-6.7 5.5-31.5 30.4-37.4 37.5l-3.8 4.5-.1-3c-.4-10.9-5.2-38-9.7-55l-1.8-7 5.8-8.9c13.2-20.2 27.8-56.1 27.8-68.6 0-9.7-8.1-20.4-17.3-22.9-8.5-2.4-19.9.6-24.7 6.6-.8 1-2 2.5-2.7 3.4-.7.8-2.8 6.7-4.7 13-1.9 6.2-4.6 14-5.9 17.3l-2.4 5.9-6.2-9c-7.8-11.5-14-18.6-26-29.8-14.1-13.2-30.3-29.3-32.5-32.1-1.8-2.5-1.8-2.6.7-5.2 9.2-10 23.3-32.5 30.7-49.1 11.9-26.7 17.1-48.9 18.6-78.7.8-15.2-.3-21.2-4.6-27.1-8.2-11.2-26.7-12.8-36.1-3.1-5.1 5.3-6.8 11.9-8.4 32.3-.5 6.7-.7 8.5-2 18.5-1.8 13.5-7.7 32.5-14.1 45.3-3.3 6.5-14.4 23.7-15.3 23.7-2.4-.2-15.6-27.6-21-43.5-2.2-6.6-4.8-15.8-5.7-20.5-2.1-10.4-5.3-17.1-9.7-20.4-13-9.9-30.9-6.4-37 7.3-3.6 8.2-2.6 23.6 2.5 40.6 6.5 21.3 23.4 54.5 41.7 82 3.7 5.5 8.6 13 11 16.6 4.6 6.9 14.8 17.4 31.6 32.4 19.1 17 35.8 35.6 39.6 43.8.7 1.5 1.6 2.7 2.1 2.7.4 0 .8.6.8 1.3 0 .7 1 2.8 2.3 4.7 2.7 4 9.5 19.6 12.5 28.6 2.6 7.7 6.9 24.6 7.6 30.2.3 2.4.7 4.6 1 5 .2.4.7 3.7 1 7.4.4 3.7.9 7.6 1.1 8.7 1.1 6 2.5 37.1 1.6 37.1-.3 0-1.9-1.3-3.6-2.8-4.6-4.2-28.1-22.7-33.8-26.7-20-13.7-27-18.3-37.7-24.7-15.7-9.4-21.3-12.5-35-19.4l-10.9-5.5 4.6-6.2c6.7-9.2 13.4-24.4 15.9-36.2 1.5-7.6 1.6-20 0-23.7-6.8-15.9-27.7-20-39.6-7.6-4.1 4.2-5.6 7.8-7 16.4-1.9 12.1-6.1 21.6-13.2 29.8l-3.4 3.9-6.8-6.9c-12-12.1-19.4-24.1-26.1-41.9-3.9-10.5-8.1-27.2-9.1-36.5-.3-3-.7-5.7-.9-6-1.8-2.9-2.4-51.8-1.2-96 .5-21.1 0-24.3-4.9-30.7-1.3-1.8-4.6-4.5-7.2-6-6.2-3.7-16.4-3.9-22.9-.5-4.5 2.4-10.3 8.7-10.3 11.4 0 .9-.4 1.9-.8 2.2-1.4.8-1.6 7-1.6 52.6-.1 46.2.3 56.4 2.9 76.5 9.1 70.1 40.1 116.1 96 142 26.6 12.4 43.6 21.5 70 37.8 1 .7 4.3 2.9 7.2 4.9 2.9 2.1 5.6 3.8 6.2 3.8.5 0 1.1.3 1.3.8.1.4 3.2 2.8 6.8 5.4 8.6 6.2 12.6 10.1 16.4 16.2 4.4 6.8 6 13.4 6 23.6 0 9.8-1.8 18.5-7.4 36.2-4.7 14.6-5.3 19.5-3.4 25.9 1.5 5.2 7 11.6 12.4 14.5 3.3 1.8 6.6 1.9 60.8 2.1 33.8.1 58.6-.3 60.7-.8 8.8-2.5 16.6-12.3 17-21.6.3-5.8.9-3.5-12.4-47.7-5.4-17.8-5.8-20.4-3.9-23.9 3-5.7 7.2-7.3 16.1-6.2 16.8 1.9 43.1 2.5 56.7 1.2 38.6-3.7 72.1-16.5 97.8-37.4 8.6-7 12-16.9 9.3-27-1.6-5.9-8.7-13.4-14.7-15.6-9.8-3.5-16.2-1.8-28.9 7.6-9.6 7.2-19.9 12.4-32.2 16.6-8.8 2.9-10.4 3.3-17 4.6-1.6.3-3.5.8-4.3 1-4.9 1.3-15.8 2-33 2-20-.1-25.8-.4-26.6-1.6-.2-.4 3.3-4 7.8-8 4.4-4.1 8.6-7.9 9.2-8.4 2.9-2.6 15.8-12.6 21.6-16.7 11.3-8 24.9-15.7 44.3-25.4 11.2-5.5 22.8-12.2 28.8-16.4 10.1-7.2 23.7-20 32.1-30.1 16.9-20.3 33.4-55.3 41.3-87.5 3.1-12.4 3-12.1 6.1-29.4.2-1.4.7-5.2 1-8.5.3-3.3.8-6.2.9-6.5.2-.3.7-6.4 1.1-13.5 1.6-29.3.8-41.4-3.1-48-7.2-12.4-26.3-14.7-37.9-4.5-5.9 5.2-6.7 8.7-7.1 32.4-.4 21.8-.6 25.6-3.1 41.6-2.1 13.9-2.3 15-5.4 27.3-5.6 22.2-15.3 44.1-26.6 59.8-5 6.9-20.2 23.4-21 22.7-.1-.2-.5-3.9-.9-8.3-1.5-18.3-8.2-40.5-17.1-56.6-6.4-11.6-15.3-24-20.6-28.8-1.9-1.6-2.4-3.7-1-4.3 2.8-1.2 18.7-23 27.9-38.1 16.1-26.5 31.6-65.1 31.6-78.7.1-17.8-17.7-29.1-33.9-21.6-7.1 3.3-11 8.4-14 18.6-3.2 10.6-9.6 27.2-14.2 37-3.2 6.7-17 30.6-19.3 33.4-.5.6-3.3 4.2-6.2 8-2.8 3.8-6 7.8-7 9l-1.7 2.1-2.5-3c-8.1-9.8-15-30-17-49.5-.9-8-.9-28.1 0-35.2 2.2-19.3 2.8-23.1 6-36.1 2.3-9.6 2.4-11.6.5-18.7-3-11.4-17.9-18.6-30.5-14.9z"/></svg>