<?xml version="1.0" standalone="no"?>
<!DOCTYPE svg PUBLIC "-//W3C//DTD SVG 20010904//EN"
 "http://www.w3.org/TR/2001/REC-SVG-20010904/DTD/svg10.dtd">
<svg version="1.0" xmlns="http://www.w3.org/2000/svg"
 width="1024.000000pt" height="1024.000000pt" viewBox="0 0 1024.000000 1024.000000"
 preserveAspectRatio="xMidYMid meet">
<metadata>
Created by potrace 1.14, written by Peter Selinger 2001-2017
</metadata>
<g transform="translate(0.000000,1024.000000) scale(0.100000,-0.100000)"
fill="#000000" stroke="none">
<path d="M4978 10201 c-35 -21 -70 -40 -78 -44 -8 -4 -28 -15 -45 -26 -90 -55
-525 -307 -552 -320 -18 -8 -33 -19 -33 -23 0 -4 -5 -8 -11 -8 -8 0 -149 -81
-274 -157 -11 -7 -40 -22 -65 -35 -25 -13 -50 -28 -56 -33 -6 -6 -33 -22 -60
-35 -27 -14 -50 -28 -52 -32 -2 -5 -10 -8 -18 -8 -8 0 -14 -4 -14 -10 0 -5 -4
-10 -9 -10 -7 0 -81 -41 -204 -114 -176 -103 -340 -196 -347 -196 -4 0 -10 -4
-12 -8 -3 -7 -72 -49 -208 -125 -25 -14 -119 -68 -209 -121 -90 -53 -167 -96
-172 -96 -5 0 -9 -4 -9 -10 0 -5 -6 -10 -13 -10 -8 0 -24 -9 -37 -20 -13 -11
-27 -20 -31 -20 -9 0 -131 -70 -139 -79 -3 -3 -23 -15 -45 -26 -22 -11 -51
-27 -65 -36 -14 -9 -74 -45 -135 -80 -60 -35 -113 -67 -116 -72 -3 -5 -10 -9
-15 -9 -8 0 -86 -42 -144 -77 -27 -17 -454 -266 -475 -277 -11 -6 -112 -65
-225 -131 -113 -66 -216 -126 -230 -134 -14 -7 -48 -28 -77 -46 -28 -18 -54
-33 -58 -33 -4 0 -29 -14 -56 -32 l-49 -31 0 -2556 c0 -1406 4 -2562 9 -2569
4 -8 11 -13 15 -12 7 1 178 -90 186 -100 3 -3 46 -29 95 -56 50 -28 130 -74
179 -102 49 -29 93 -52 97 -52 5 0 9 -5 9 -11 0 -5 4 -8 9 -5 5 3 14 -1 21 -9
7 -8 19 -15 26 -15 8 0 14 -4 14 -8 0 -5 16 -14 35 -22 19 -8 35 -17 35 -22 0
-4 5 -8 10 -8 6 0 90 -46 188 -103 97 -57 184 -106 192 -110 8 -4 24 -13 35
-20 11 -7 52 -30 90 -51 39 -22 72 -42 75 -45 3 -3 23 -15 45 -27 72 -38 160
-87 165 -93 3 -3 30 -19 60 -35 30 -16 62 -35 71 -42 8 -8 18 -14 22 -14 3 0
28 -13 55 -29 43 -25 121 -69 187 -105 11 -6 22 -13 25 -16 3 -3 25 -16 50
-29 25 -13 52 -29 60 -35 8 -7 33 -21 55 -31 22 -11 42 -23 43 -27 2 -5 10 -8
18 -8 8 0 14 -5 14 -12 0 -6 3 -8 6 -5 4 4 19 -2 33 -12 14 -10 47 -30 72 -43
77 -43 94 -53 99 -58 6 -6 84 -49 117 -64 13 -6 23 -14 23 -18 0 -5 4 -8 9 -8
5 0 94 -49 198 -108 103 -60 208 -120 233 -134 50 -28 147 -84 170 -98 59 -37
146 -84 153 -82 4 1 7 -2 7 -8 0 -5 5 -10 11 -10 6 0 23 -8 37 -19 15 -10 59
-35 97 -56 39 -21 77 -43 85 -49 15 -11 24 -16 99 -58 20 -11 66 -38 103 -59
36 -22 70 -39 75 -39 5 0 14 -5 21 -12 13 -13 105 -68 162 -96 19 -9 37 -19
40 -22 3 -3 16 -11 29 -18 37 -21 74 -42 238 -137 128 -73 156 -85 168 -75 16
13 83 52 125 73 14 6 27 14 30 18 3 3 21 14 40 24 19 9 43 24 53 33 9 8 17 12
17 9 0 -4 25 9 55 28 30 19 57 35 60 35 3 0 31 16 61 35 30 19 60 36 67 38 7
1 17 9 24 17 7 8 13 11 13 6 0 -5 8 -2 18 6 9 8 44 30 77 48 33 17 65 35 70
40 6 4 42 25 80 45 39 21 105 60 148 87 42 26 77 46 77 42 0 -3 12 3 28 14 15
11 44 29 65 41 20 11 54 31 75 42 20 12 57 33 82 47 25 13 53 31 63 40 9 8 17
12 17 9 0 -3 39 18 88 47 48 29 137 81 197 115 61 34 117 66 125 71 66 41 313
180 320 180 5 0 10 4 12 9 2 5 10 11 18 13 8 2 17 5 20 8 7 7 130 80 136 80 2
0 32 17 66 38 35 21 95 56 133 76 39 21 77 44 85 52 8 7 26 17 40 23 14 6 48
25 75 41 28 17 57 34 65 37 8 4 17 9 20 12 3 3 26 17 52 31 26 14 100 55 164
93 64 37 121 67 125 67 5 0 9 5 9 10 0 6 4 10 9 10 7 0 372 207 491 279 19 11
42 24 50 28 8 4 48 26 87 50 40 23 103 59 140 79 38 20 75 42 83 49 8 7 22 15
30 19 8 3 38 20 65 36 28 17 66 37 85 46 19 9 37 19 40 23 3 4 37 25 75 46 39
22 84 48 100 57 17 10 40 23 53 30 36 18 36 18 -73 78 -65 36 -107 61 -115 70
-3 3 -11 6 -19 8 -8 2 -26 11 -40 21 -14 10 -48 31 -76 45 -27 15 -57 31 -65
36 -84 52 -152 90 -159 90 -5 0 -14 7 -21 15 -7 8 -16 12 -21 9 -5 -3 -12 2
-15 10 -3 9 -14 16 -24 16 -10 0 -23 7 -30 15 -7 8 -18 15 -25 15 -8 0 -15 3
-17 8 -3 6 -55 36 -115 66 -13 6 -23 14 -23 19 0 4 -4 7 -9 7 -5 0 -52 25
-105 55 -52 30 -99 55 -105 55 -5 0 -11 4 -13 8 -1 5 -54 37 -115 71 -62 35
-115 67 -119 72 -3 5 -10 7 -15 4 -5 -4 -9 -1 -9 4 0 6 -4 11 -9 11 -5 0 -70
36 -145 80 -76 44 -138 80 -140 80 -2 0 -65 36 -140 80 -75 44 -140 80 -145
80 -5 0 -11 3 -13 8 -3 7 -39 29 -98 59 -19 10 -36 21 -38 26 -2 4 -7 7 -12 7
-5 0 -41 19 -82 43 -40 24 -93 55 -118 69 -56 31 -222 127 -315 182 -38 22
-72 41 -75 41 -3 0 -16 8 -30 17 -65 41 -291 168 -300 168 -5 0 -10 5 -10 10
0 6 -6 10 -14 10 -8 0 -16 3 -18 8 -1 4 -19 15 -38 25 -19 9 -53 28 -75 42
-22 13 -47 27 -55 31 -8 4 -51 29 -95 54 -44 26 -100 59 -125 72 -25 14 -72
41 -105 60 -33 19 -76 44 -95 54 -19 10 -37 22 -40 25 -3 3 -21 14 -40 24 -19
10 -52 27 -72 38 -21 10 -38 23 -38 28 0 5 -7 9 -15 9 -8 0 -39 16 -69 35 -30
19 -57 35 -60 35 -3 0 -35 18 -71 40 -36 22 -70 40 -75 40 -6 0 -10 5 -10 11
0 5 -4 8 -9 4 -5 -3 -12 -1 -16 4 -3 5 -18 16 -33 24 -46 24 -106 59 -134 78
-14 11 -29 19 -32 19 -4 0 -31 14 -62 31 l-55 32 43 25 c24 14 46 30 49 35 3
5 10 9 15 9 17 1 54 21 54 30 0 4 7 8 15 8 9 0 21 5 28 10 12 11 298 179 327
193 8 4 29 16 45 27 17 11 40 24 53 30 12 5 47 26 77 45 31 19 60 35 65 35 6
0 10 5 10 10 0 6 5 10 10 10 9 0 113 59 440 251 63 37 119 67 124 67 5 0 12 4
15 9 6 8 129 83 137 83 2 0 28 16 58 35 30 19 57 35 60 35 3 0 35 18 71 40 36
22 70 40 75 40 6 0 10 5 10 10 0 6 6 10 14 10 8 0 21 6 28 13 8 6 23 17 33 23
11 6 47 26 80 44 33 18 62 36 65 40 3 4 15 10 27 14 13 4 29 13 35 19 7 7 30
21 50 32 87 47 263 149 338 195 45 28 83 50 86 50 2 0 21 11 42 23 35 23 66
41 177 103 28 15 52 30 55 34 3 3 23 14 45 25 22 11 42 23 45 26 3 3 30 19 60
36 30 16 90 51 133 76 43 26 83 47 88 47 5 0 9 5 9 10 0 6 5 10 11 10 6 0 24
9 40 21 16 11 29 18 29 14 0 -3 15 4 33 17 40 29 68 46 87 55 8 4 71 40 139
80 67 40 127 73 132 73 5 0 9 5 9 10 0 6 5 10 11 10 9 0 110 58 387 221 45 27
87 49 92 49 6 0 10 5 10 11 0 5 5 7 10 4 6 -3 10 -2 10 2 0 5 24 21 53 37 95
50 127 69 127 76 0 4 -10 12 -22 18 -32 16 -131 72 -143 82 -5 4 -30 19 -55
33 -25 13 -112 64 -195 113 -82 48 -171 98 -197 111 -25 13 -52 31 -58 38 -7
8 -16 15 -21 15 -5 0 -38 17 -73 39 -35 21 -77 44 -95 52 -17 8 -31 17 -31 21
0 5 -6 8 -14 8 -8 0 -16 3 -18 8 -3 7 -66 43 -115 66 -13 6 -23 14 -23 19 0 4
-5 7 -10 7 -6 0 -27 11 -48 23 -20 13 -58 35 -83 49 -80 45 -93 53 -107 66 -7
6 -17 12 -22 12 -11 0 -114 63 -118 73 -2 4 -11 7 -20 7 -8 0 -23 6 -31 13 -9
8 -50 33 -91 57 -41 23 -91 52 -110 63 -19 11 -55 31 -80 45 -25 13 -52 30
-60 36 -8 6 -32 20 -52 30 -21 11 -38 24 -38 29 0 6 -3 8 -6 4 -5 -5 -30 8
-149 80 -22 13 -48 26 -57 30 -10 3 -18 9 -18 14 0 5 -6 9 -14 9 -7 0 -19 7
-26 15 -6 8 -15 13 -18 12 -7 -2 -165 89 -251 145 -25 15 -48 28 -52 28 -5 0
-36 18 -70 40 -34 22 -68 40 -75 40 -7 0 -14 4 -16 8 -3 8 -145 92 -154 92 -3
0 -10 5 -17 10 -10 9 -373 222 -502 295 -22 12 -56 32 -75 43 -19 12 -44 26
-55 32 -11 5 -42 23 -70 40 -27 16 -79 47 -115 67 -36 20 -66 41 -68 45 -2 4
-9 8 -16 8 -8 0 -25 9 -40 21 -14 11 -26 17 -26 13 0 -4 -8 -1 -17 7 -10 8
-30 21 -45 29 -16 7 -28 17 -28 22 0 4 -9 8 -20 8 -11 0 -20 5 -20 10 0 6 -4
10 -9 10 -5 0 -39 18 -75 40 -36 22 -70 40 -76 40 -5 0 -10 5 -10 10 0 6 -6
10 -12 10 -7 0 -40 17 -73 38 -33 21 -75 45 -92 53 -18 7 -33 17 -33 21 0 5
-7 8 -15 8 -8 0 -15 4 -15 9 0 24 -44 16 -102 -18z"/>
</g>
</svg>
