<svg stroke="currentColor" fill="none" stroke-width="1" viewBox="0 0 24 21" focusable="false" xmlns="http://www.w3.org/2000/svg">
<path fill-rule="evenodd" clip-rule="evenodd" d="M11.2639,0.40956C11.8756,0.06286 12.6244,0.06286 13.2362,0.40956L22.2081,5.4945C23.5599,6.26064 23.5599,8.2083 22.2081,8.97444L20.0192,10.215L20.0192,15.8338C20.0192,16.5764 19.6078,17.2579 18.9507,17.6037L13.1814,20.6399C12.5984,20.9468 11.9016,20.9468 11.3186,20.6399L5.54933,17.6037C4.8922,17.2579 4.48077,16.5764 4.48077,15.8338L4.48077,10.215L1.2,8.25067L1.2,11.7095C1.175,12.3118 1.22728,12.7095 1.1,12.8095C0.97272,12.9095 0.3,13.3368 0.3,11.9595L0.25,7.23447C0.25,6.87435 0.44363,6.54205 0.75693,6.36448L11.2639,0.40956zM0.87809,7.03447L12.325,13.6194L22.3469,8.08447L22.99,7.55446L22.6969,6.40947L12.25,0.49954L0.87809,7.03447zM5.08077,10.4735L5.15577,16.55577L12.3,20.3451L19.4192,16.6838L19.3692,10.5735L13.2362,14.0594C12.6244,14.4061 11.8756,14.4061 11.2639,14.0594L5.08077,10.4735z"/>
<path fill-rule="evenodd" clip-rule="evenodd" d="M11.2639,0.40956C11.8756,0.06286 12.6244,0.06286 13.2362,0.40956L22.2081,5.4945C23.5599,6.26064 23.5599,8.2083 22.2081,8.97444L20.0192,10.215L20.0192,15.8338C20.0192,16.5764 19.6078,17.2579 18.9507,17.6037L13.1814,20.6399C12.5984,20.9468 11.9016,20.9468 11.3186,20.6399L5.54933,17.6037C4.8922,17.2579 4.48077,16.5764 4.48077,15.8338L4.48077,10.215L1.225,8.32567L1.25,11.9845C1.25,12.4618 1.22728,12.9345 0.8,12.9845C0.37272,13.0345 0.25,12.5368 0.25,11.9845L0.25,7.23447C0.25,6.87435 0.44363,6.54205 0.75693,6.36448L11.2639,0.40956z" />
</svg>
