<svg width="48" height="48" viewBox="0 0 48 48" fill="none" xmlns="http://www.w3.org/2000/svg">
<g filter="url(#filter0_d)">
<circle cx="24" cy="22" r="16" fill="#FF5D5D"/>
<path fill-rule="evenodd" clip-rule="evenodd" d="M23.3426 14.9397C23.7504 14.7086 24.2496 14.7086 24.6574 14.9397L30.6387 18.3297C31.5399 18.8404 31.5399 20.1389 30.6387 20.6496L29.1795 21.4767V25.2226C29.1795 25.7176 28.9052 26.1719 28.4671 26.4025L24.621 28.4266C24.2323 28.6312 23.7677 28.6312 23.379 28.4266L19.5329 26.4025C19.0948 26.1719 18.8205 25.7176 18.8205 25.2226V21.4767L17.3333 20.6338V22.6563C17.3333 23.0245 17.0349 23.323 16.6667 23.323C16.2985 23.323 16 23.0245 16 22.6563V19.4896C16 19.2496 16.1291 19.028 16.338 18.9097L23.3426 14.9397ZM18.0187 19.4896L24 22.8796L29.9813 19.4896L30.31 20.0696L29.9813 19.4896L24 16.0997L18.0187 19.4896ZM20.1538 22.2323V25.2226L24 27.2467L27.8462 25.2226V22.2323L24.6574 24.0396C24.2496 24.2707 23.7504 24.2707 23.3426 24.0396L20.1538 22.2323Z" fill="white"/>
</g>
<defs>
<filter id="filter0_d" x="0" y="0" width="48" height="48" filterUnits="userSpaceOnUse" color-interpolation-filters="sRGB">
<feFlood flood-opacity="0" result="BackgroundImageFix"/>
<feColorMatrix in="SourceAlpha" type="matrix" values="0 0 0 0 0 0 0 0 0 0 0 0 0 0 0 0 0 0 127 0"/>
<feOffset dy="2"/>
<feGaussianBlur stdDeviation="4"/>
<feColorMatrix type="matrix" values="0 0 0 0 0.19691 0 0 0 0 0.208494 0 0 0 0 0.220833 0 0 0 0.04 0"/>
<feBlend mode="normal" in2="BackgroundImageFix" result="effect1_dropShadow"/>
<feBlend mode="normal" in="SourceGraphic" in2="effect1_dropShadow" result="shape"/>
</filter>
</defs>
</svg>
