<svg width="100%" height="100%" viewBox="0 0 24 21" fill="none" xmlns="http://www.w3.org/2000/svg">
<path fill-rule="evenodd" clip-rule="evenodd" d="M11.2639 0.409509C11.8756 0.0628071 12.6244 0.0628075 13.2362 0.409509L22.2081 5.49444C23.5599 6.26059 23.5599 8.20824 22.2081 8.97439L20.0192 10.2149V15.8338C20.0192 16.5764 19.6078 17.2578 18.9507 17.6037L13.1814 20.6399C12.5984 20.9467 11.9016 20.9467 11.3186 20.6399L5.54933 17.6037C4.8922 17.2578 4.48077 16.5764 4.48077 15.8338V10.2149L2.25 8.95062V11.9844C2.25 12.5367 1.80228 12.9844 1.25 12.9844C0.697715 12.9844 0.25 12.5367 0.25 11.9844V7.23442C0.25 6.8743 0.443628 6.54199 0.756925 6.36443L11.2639 0.409509Z" fill="#1B1E1E"/>
</svg>
