<svg width="100%" height="100%" fill="currentColor" viewBox="0 0 23 21"  xmlns="http://www.w3.org/2000/svg">
<path fill-rule="evenodd" clip-rule="evenodd" d="M11.0139 0.40944C11.6256 0.0627384 12.3744 0.0627389 12.9862 0.40944L21.9581 5.49437C23.3099 6.26052 23.3099 8.20817 21.9581 8.97432L19.7692 10.2149V15.8337C19.7692 16.5763 19.3578 17.2577 18.7007 17.6036L12.9314 20.6398C12.3484 20.9467 11.6516 20.9467 11.0686 20.6398L5.29933 17.6036C4.6422 17.2577 4.23077 16.5763 4.23077 15.8337V10.2149L2 8.95055V11.9844C2 12.5367 1.55228 12.9844 1 12.9844C0.447715 12.9844 0 12.5367 0 11.9844V7.23435C0 6.87423 0.193628 6.54192 0.506925 6.36436L11.0139 0.40944ZM3.02809 7.23435L12 12.3193L20.9719 7.23435L21.465 8.10433L20.9719 7.23435L12 2.14941L3.02809 7.23435ZM6.23077 11.3484V15.8337L12 18.8699L17.7692 15.8337V11.3484L12.9862 14.0593C12.3744 14.406 11.6256 14.406 11.0139 14.0593L6.23077 11.3484Z"/>
</svg>
