<svg width="100%" height="100%" viewBox="0 0 473 128" xmlns="http://www.w3.org/2000/svg">
<path d="M55.0414 -9.95646e-06L110.081 32L55.0414 64L0.00146484 32L55.0414 -9.95646e-06Z" fill="#FFAEAE"/>
<path d="M55.6815 64L111.361 96L55.6814 128L0.00146484 96L55.6815 64Z" fill="#FF5D5D"/>
<path d="M0 32L55.68 64V127.771L2.36165e-05 95.8857L0 32Z" fill="#FF8686"/>
<path d="M425.388 45.6774V51.7419C421.178 46.8387 414.926 43.871 406.378 43.871C389.664 43.871 375.885 58.7097 375.885 77.9355C375.885 97.1613 389.664 112 406.378 112C414.926 112 421.178 109.032 425.388 104.129V110.194H444.526V45.6774H425.388ZM410.205 93.6774C401.402 93.6774 395.023 87.6129 395.023 77.9355C395.023 68.2581 401.402 62.1935 410.205 62.1935C419.009 62.1935 425.388 68.2581 425.388 77.9355C425.388 87.6129 419.009 93.6774 410.205 93.6774Z"/>
<path d="M452.942 110.194H472.08V16H452.942V110.194Z" />
<path d="M291.787 112C310.542 112 325.598 97.1613 325.598 77.9355C325.598 58.7097 310.542 43.871 291.787 43.871C273.032 43.871 257.977 58.7097 257.977 77.9355C257.977 97.1613 273.032 112 291.787 112ZM291.787 93.1613C283.494 93.1613 277.115 87.0968 277.115 77.9355C277.115 68.7742 283.494 62.7097 291.787 62.7097C300.08 62.7097 306.46 68.7742 306.46 77.9355C306.46 87.0968 300.08 93.1613 291.787 93.1613Z" />
<path d="M218.442 112C234.773 112 249.063 103.871 256.718 91.0968L239.111 80.7743C235.283 87.742 227.5 91.871 218.442 91.871C202.621 91.871 192.414 81.1614 192.414 65.0323C192.414 48.9033 202.621 38.1936 218.442 38.1936C227.5 38.1936 235.156 42.3226 239.111 49.2904L256.718 38.9678C248.935 26.1936 234.645 18.0646 218.442 18.0646C191.521 18.0646 172 38.4517 172 65.0323C172 91.613 191.521 112 218.442 112Z" />
<path d="M350.465 45.6779V110.209H331.319V45.6779H350.465Z" />
<path d="M354.078 48.2584C351.67 50.667 350.465 53.6778 350.465 57.2907C350.465 60.8176 351.67 63.8283 354.078 66.323C356.573 68.7316 359.584 69.9359 363.11 69.9359C366.723 69.9359 369.734 68.7316 372.143 66.323C374.637 63.8283 375.885 60.8176 375.885 57.2907C375.885 53.6778 374.637 50.667 372.143 48.2584C369.734 45.7638 366.723 44.5165 363.11 44.5165C359.584 44.5165 356.573 45.7638 354.078 48.2584Z" />
</svg>
