<?xml version="1.0" standalone="no"?>
<!DOCTYPE svg PUBLIC "-//W3C//DTD SVG 20010904//EN"
 "http://www.w3.org/TR/2001/REC-SVG-20010904/DTD/svg10.dtd">
<svg version="1.0" xmlns="http://www.w3.org/2000/svg"
 width="644.000000pt" height="258.000000pt" viewBox="0 0 644.000000 258.000000"
 preserveAspectRatio="xMidYMid meet">

<g transform="translate(0.000000,258.000000) scale(0.100000,-0.100000)"
stroke="none">
<path d="M182 1893 l3 -468 78 -3 77 -3 0 195 0 195 148 3 147 3 3 78 3 77
-151 0 -150 0 0 120 0 120 215 0 215 0 0 75 0 75 -295 0 -295 0 2 -467z"/>
<path d="M892 1893 l3 -468 78 -3 77 -3 0 146 0 146 116 -3 116 -3 75 -142 75
-143 84 0 84 0 -82 164 -82 164 51 49 c120 112 144 287 57 418 -35 54 -64 79
-134 116 -43 23 -55 24 -283 27 l-237 3 2 -468z m420 317 c78 -22 130 -90 130
-170 0 -57 -21 -101 -64 -133 -52 -38 -93 -47 -214 -47 l-114 0 0 180 0 180
113 0 c61 0 129 -5 149 -10z"/>
<path d="M2066 2329 c-8 -19 -94 -225 -191 -459 -98 -234 -180 -431 -182 -437
-4 -10 15 -13 73 -13 l79 0 113 274 c63 150 117 278 121 284 4 6 60 -117 125
-273 l119 -285 74 0 c40 0 73 4 73 9 0 10 -378 922 -385 929 -3 3 -11 -10 -19
-29z"/>
<path d="M2602 1893 l3 -468 77 -3 78 -3 2 273 3 274 258 -268 c142 -147 263
-268 268 -268 11 0 12 243 2 643 l-6 287 -73 0 -74 0 -2 -274 -3 -274 -260
274 c-143 150 -263 274 -268 274 -4 0 -6 -210 -5 -467z"/>
<path d="M3505 2348 c-3 -7 -4 -218 -3 -468 l3 -455 77 -3 78 -3 2 270 3 269
189 -265 c104 -146 195 -267 201 -269 6 -3 50 -4 97 -2 l86 3 -185 255 c-101
140 -187 261 -190 268 -3 7 49 70 119 145 69 72 153 162 187 200 l63 67 -110
0 -111 0 -173 -191 -173 -191 -3 191 -2 191 -76 0 c-50 0 -76 -4 -79 -12z"/>
<path d="M4352 1893 l3 -468 273 -3 272 -2 0 75 0 75 -195 0 -195 0 0 395 0
395 -80 0 -80 0 2 -467z" />
<path d="M5032 1893 l3 -468 78 -3 77 -3 0 471 0 470 -80 0 -80 0 2 -467z"/>
<path d="M5392 1893 l3 -468 77 -3 78 -3 2 273 3 274 258 -268 c142 -147 263
-268 268 -268 11 0 12 243 2 643 l-6 287 -73 0 -74 0 -2 -274 -3 -274 -260
274 c-143 150 -263 274 -268 274 -4 0 -6 -210 -5 -467z"/>
<path d="M1180 695 l0 -395 65 0 65 0 0 160 0 160 193 -2 192 -3 3 -157 3
-158 59 0 60 0 0 395 0 395 -60 0 -60 0 -2 -172 -3 -173 -192 -3 -193 -2 -2
172 -3 173 -62 3 -63 3 0 -396z"/>
<path d="M2282 1080 c-174 -26 -310 -181 -320 -365 -11 -208 115 -370 318
-407 200 -38 393 90 440 291 19 79 9 184 -25 258 -46 103 -167 201 -271 218
-74 12 -89 13 -142 5z m175 -156 c196 -94 188 -375 -12 -470 -91 -43 -201 -25
-274 46 -55 54 -73 93 -79 172 -6 79 13 141 60 194 80 91 191 112 305 58z"/>
<path d="M3950 695 l0 -395 240 0 240 0 0 65 0 65 -175 0 -175 0 0 100 0 100
125 0 125 0 0 65 0 65 -125 0 -125 0 0 100 0 100 175 0 175 0 0 65 0 65 -240
0 -240 0 0 -395z"/>
<path d="M4723 1076 c-110 -35 -173 -110 -173 -207 0 -131 47 -175 240 -224
57 -14 116 -33 131 -41 60 -30 76 -90 37 -139 -63 -80 -229 -73 -312 14 l-29
30 -53 -41 -54 -40 20 -28 c101 -141 413 -161 531 -33 44 46 59 87 59 154 0
129 -59 189 -223 229 -125 31 -167 47 -194 72 -74 70 54 171 175 139 24 -7 57
-27 77 -47 l35 -35 55 33 c30 18 55 36 55 41 0 24 -87 98 -136 117 -64 23
-175 26 -241 6z"/>
<path d="M2880 690 l0 -390 65 0 65 0 2 221 3 221 130 -147 c72 -81 141 -161
155 -177 l25 -30 160 182 160 182 3 -226 2 -226 65 0 65 0 0 391 c0 242 -4
389 -9 387 -6 -1 -107 -112 -226 -246 -182 -204 -219 -241 -231 -231 -8 7
-108 117 -221 246 -113 128 -207 233 -209 233 -2 0 -4 -175 -4 -390z"/>
</g>
</svg>
