<svg width="68" height="96" viewBox="0 0 68 96" fill="none" xmlns="http://www.w3.org/2000/svg">
# fill="#3DC98F"
<path d="M31.6 0.900002C31.3 1.4 31.7 2 32.5 2.4C33.3 2.7 34 4.1 34 5.5C34 6.9 34.4 8 34.9 8C36.2 8 42 4.6 42 3.9C42 3.2 34.6 0 33 0C32.5 0 31.9 0.400002 31.6 0.900002Z"/>
<path d="M19.1 7.9C18.2 8.5 20.2 10.1 25.6 13.2C32.1 16.8 33.6 18 33.8 20.3C34 21.8 34.3 23 34.6 23C34.8 23 39.1 20.7 44.1 17.9L53.2 12.8L50.3 9.8L47.3 6.9L40.5 10.6L33.7 14.4L27.1 10.7C22.8 8.4 19.9 7.4 19.1 7.9Z"/>
<path d="M45.2 22.7L33.9 29.1L22.9 23C16.1 19.2 11.2 17.1 10.2 17.5C8.4 18.2 8.9 18.5 24.3 27C32.2 31.4 34 32.8 34 34.7C34 36 34.6 37 35.3 36.9C37 36.9 60.3 23.5 60.7 22.4C60.8 21.9 59.9 20.3 58.7 18.9L56.5 16.2L45.2 22.7Z"/>
<path d="M3.4 28.1C2.6 29.4 1.8 28.9 20 39.1C31.5 45.6 33.5 47.1 33.8 49.4C34 50.8 34.4 52 34.6 52C35.9 52 66 34.7 66 34C66 31.9 63.9 28 62.8 28C62.2 28 55.6 31.4 48.3 35.5C40.9 39.6 34.4 43 33.8 43C32.8 43 17.2 34.6 7.3 28.8C5 27.4 4 27.2 3.4 28.1Z"/>
<path d="M0 41.3C0 42 7.6 46.9 17 52.1C31.9 60.4 33.9 61.8 34.2 64.2L34.5 67L51 57.7L67.5 48.4L67.8 44.2C68 41.9 67.7 40 67.1 40C66.6 40 58.9 44.1 50 49L33.9 58L30.7 56.4C28.9 55.5 21.6 51.4 14.4 47.4C7.2 43.3 1 40 0.6 40C0.3 40 0 40.6 0 41.3Z"/>
<path d="M0.20001 55.6C0.40001 56.6 1.90001 58.1 3.50001 58.9C20.4 67.5 34 75.8 34 77.5C34 81.2 37.1 80.1 56.2 69.4C65.7 64 65.9 63.9 66.9 59.3C67.4 56.7 67.7 54.4 67.6 54.2C67.4 54.1 60 58 51.2 63C42.4 67.9 34.5 72 33.6 72C32.8 72 27.3 69.3 21.3 65.9C15.4 62.5 8.10001 58.4 5.20001 56.8C0.50001 54.1 -0.0999901 54 0.20001 55.6Z"/>
<path d="M5 71.9C5 73.7 9.6 77 21.3 83.5C32.8 89.9 33.9 90.8 34 93.3C34 94.9 34.3 96 34.8 95.8C39.3 93.8 48.7 88.1 51.9 85.4C55.7 82.1 62.4 73.1 61.6 72.3C61.4 72 55.6 75 48.7 78.9C41.9 82.8 35.6 86.2 34.8 86.5C33.9 86.9 27.4 83.8 19.1 79.1C11.4 74.7 5 71.5 5 71.9Z"/>
</svg>
